<svg xmlns="http://www.w3.org/2000/svg" xmlns:xlink="http://www.w3.org/1999/xlink" xmlns:sketch="http://www.bohemiancoding.com/sketch/ns" viewBox="0 0 91 113.75" version="1.1" x="0px" y="0px"><title>rect23254</title><desc>Created with Sketch.</desc><g stroke="none" stroke-width="1" fill="none" fill-rule="evenodd" sketch:type="MSPage"><path d="M22.9727,0.845 L22.9727,8.345 L30.4727,8.345 L37.9727,8.345 L45.4727,8.345 L52.9727,8.345 L60.4727,8.345 L67.9727,8.345 L67.9727,0.845 L60.4727,0.845 L52.9727,0.845 L45.4727,0.845 L37.9727,0.845 L30.4727,0.845 L22.9727,0.845 L22.9727,0.845 Z M67.9727,8.345 L67.9727,15.845 L75.4727,15.845 L75.4727,8.345 L67.9727,8.345 L67.9727,8.345 Z M75.4727,15.845 L75.4727,23.345 L82.9727,23.345 L82.9727,15.845 L75.4727,15.845 L75.4727,15.845 Z M82.9727,23.345 L82.9727,30.845 L82.9727,38.345 L82.9727,45.845 L82.9727,53.345 L82.9727,60.845 L82.9727,68.345 L90.4727,68.345 L90.4727,60.845 L90.4727,53.345 L90.4727,45.845 L90.4727,38.345 L90.4727,30.845 L90.4727,23.345 L82.9727,23.345 L82.9727,23.345 Z M82.9727,68.345 L75.4727,68.345 L75.4727,75.845 L82.9727,75.845 L82.9727,68.345 L82.9727,68.345 Z M75.4727,75.845 L67.9727,75.845 L67.9727,83.345 L75.4727,83.345 L75.4727,75.845 L75.4727,75.845 Z M67.9727,83.345 L60.4727,83.345 L52.9727,83.345 L45.4727,83.345 L37.9727,83.345 L30.4727,83.345 L22.9727,83.345 L22.9727,90.845 L30.4727,90.845 L37.9727,90.845 L45.4727,90.845 L52.9727,90.845 L60.4727,90.845 L67.9727,90.845 L67.9727,83.345 L67.9727,83.345 Z M22.9727,83.345 L22.9727,75.845 L15.4727,75.845 L15.4727,83.345 L22.9727,83.345 L22.9727,83.345 Z M15.4727,75.845 L15.4727,68.345 L7.9727,68.345 L7.9727,75.845 L15.4727,75.845 L15.4727,75.845 Z M7.9727,68.345 L7.9727,60.845 L7.9727,53.345 L7.9727,45.845 L7.9727,38.345 L7.9727,30.845 L7.9727,23.345 L0.4727,23.345 L0.4727,30.845 L0.4727,38.345 L0.4727,45.845 L0.4727,53.345 L0.4727,60.845 L0.4727,68.345 L7.9727,68.345 L7.9727,68.345 Z M7.9727,23.345 L15.4727,23.345 L15.4727,15.845 L7.9727,15.845 L7.9727,23.345 L7.9727,23.345 Z M15.4727,15.845 L22.9727,15.845 L22.9727,8.345 L15.4727,8.345 L15.4727,15.845 L15.4727,15.845 Z M30.4727,15.845 L30.4727,23.345 L30.4727,30.845 L30.4727,38.345 L30.4727,45.845 L30.4727,53.345 L30.4727,60.845 L30.4727,68.345 L30.4727,75.845 L37.9727,75.845 L37.9727,68.345 L45.4727,68.345 L45.4727,60.845 L52.9727,60.845 L52.9727,53.345 L60.4727,53.345 L60.4727,45.845 L60.4727,38.345 L52.9727,38.345 L52.9727,30.845 L45.4727,30.845 L45.4727,23.345 L37.9727,23.345 L37.9727,15.845 L30.4727,15.845 L30.4727,15.845 Z" fill="#000000" sketch:type="MSShapeGroup"/></g><text x="0" y="106" fill="#000000" font-size="5px" font-weight="bold" font-family="'Helvetica Neue', Helvetica, Arial-Unicode, Arial, Sans-serif">Created by Bluetip Design</text><text x="0" y="111" fill="#000000" font-size="5px" font-weight="bold" font-family="'Helvetica Neue', Helvetica, Arial-Unicode, Arial, Sans-serif">from the Noun Project</text></svg>